# xmcd
#
# Track frame offsets: 
#        150
#        13824
#        40128
#        63427
#        92183
#        111372
#        133066
#        169762
#        193919
#        228602
#        249603
#
# Disc length: 3607 seconds
#
# Revision: 0
# Processed by: cddbd v1.5.2PL0 Copyright (c) Steve Scherf et al.
# Submitted via: ExactAudioCopy v1.0b3
#
DISCID=9f0e150b
DTITLE=Various Artist - Cho Huong Dung Bay Di
DYEAR=1900
DGENRE=
TTITLE0=La Suong Suong - Loi gioi thieu
TTITLE1=Bao Yen - Huong tham
TTITLE2=La Suong Suong - Huong bien
TTITLE3=Phuong Thao - Huong toc
TTITLE4=Cao Duy - Huong sen
TTITLE5=Le Thu - Huong tram
TTITLE6=Bao Yen - Huong tinh yeu
TTITLE7=Hoang Tho - Huong rung
TTITLE8=Cao Duy - Huong xua
TTITLE9=La Suong Suong - Huong dem
TTITLE10=Thuy Duong - Huong que
EXTD=
EXTT0=
EXTT1=
EXTT2=
EXTT3=
EXTT4=
EXTT5=
EXTT6=
EXTT7=
EXTT8=
EXTT9=
EXTT10=
PLAYORDER=
